<svg width="57" height="56" viewBox="0 0 57 56" fill="none" xmlns="http://www.w3.org/2000/svg">
<path d="M35.2 33.0039V37.3322L28.2 45.4989L21.2 37.3322V33.0039C22.0759 33.997 23.153 34.7924 24.3599 35.3372C25.5668 35.8821 26.8758 36.1638 28.2 36.1638C29.5242 36.1638 30.8332 35.8821 32.0401 35.3372C33.247 34.7924 34.3242 33.997 35.2 33.0039Z" fill="#EDB996"/>
<path d="M33.66 39.1293L28.2 45.4993C23.6967 40.2377 23.5333 39.9343 23.5333 40.051C23.5341 39.7115 23.6226 39.378 23.7901 39.0827C23.9576 38.7874 24.1986 38.5404 24.4896 38.3656C24.7806 38.1907 25.1118 38.094 25.4512 38.0847C25.7905 38.0755 26.1265 38.154 26.4267 38.3127C29.0633 39.666 30.86 40.1327 33.66 39.1293Z" fill="#F6CCAF"/>
<path d="M37.5333 21C37.5333 26.495 37.965 29.1667 35.8533 32.165C35.0451 33.3246 33.984 34.2854 32.7501 34.975C31.5163 35.6646 30.142 36.0649 28.7308 36.1458C27.3197 36.2267 25.9086 35.986 24.604 35.4419C23.2995 34.8979 22.1355 34.0646 21.2 33.005C18.2833 29.6917 18.8667 26.46 18.8667 21H37.5333Z" fill="#F6CCAF"/>
<path d="M37.5333 23.332C37.5333 26.9254 37.8483 29.3054 35.8533 32.1637C34.0567 33.4124 31.8784 33.9901 29.6991 33.7961C27.5197 33.602 25.4778 32.6485 23.93 31.102C21.5967 28.7687 21.2 26.272 21.2 23.332H37.5333Z" fill="#FFDEC7"/>
<path d="M42.2 23.3333C42.2 23.9522 41.9542 24.5457 41.5166 24.9832C41.079 25.4208 40.4855 25.6667 39.8667 25.6667H37.5333V21H39.8667C40.4855 21 41.079 21.2458 41.5166 21.6834C41.9542 22.121 42.2 22.7145 42.2 23.3333Z" fill="#F6CCAF"/>
<path d="M18.8667 21V25.6667H16.5333C15.9145 25.6667 15.321 25.4208 14.8834 24.9832C14.4458 24.5457 14.2 23.9522 14.2 23.3333C14.2 22.7145 14.4458 22.121 14.8834 21.6834C15.321 21.2458 15.9145 21 16.5333 21H18.8667Z" fill="#F6CCAF"/>
<path d="M39.8667 16.332H16.5333C15.889 16.332 15.3667 16.8544 15.3667 17.4987V19.832C15.3667 20.4764 15.889 20.9987 16.5333 20.9987H39.8667C40.511 20.9987 41.0333 20.4764 41.0333 19.832V17.4987C41.0333 16.8544 40.511 16.332 39.8667 16.332Z" fill="#FFCC66"/>
<path d="M41.0333 17.4987V18.6654H21.2C20.5812 18.6654 19.9877 18.4195 19.5501 17.9819C19.1125 17.5444 18.8667 16.9509 18.8667 16.332H39.8667C40.1761 16.332 40.4728 16.4549 40.6916 16.6737C40.9104 16.8925 41.0333 17.1893 41.0333 17.4987Z" fill="#FFDE76"/>
<path d="M39.8667 13.9993V16.3327H16.5333V13.9993C16.5333 11.524 17.5167 9.15003 19.267 7.39969C21.0173 5.64935 23.3913 4.66602 25.8667 4.66602V10.4993H30.5333V4.66602C33.0087 4.66602 35.3827 5.64935 37.133 7.39969C38.8833 9.15003 39.8667 11.524 39.8667 13.9993Z" fill="#FFDE76"/>
<path d="M18.8667 11.6657C18.8654 9.75978 19.4476 7.89918 20.535 6.33398C19.2992 7.19409 18.2898 8.34041 17.593 9.67513C16.8962 11.0098 16.5326 12.4933 16.5333 13.999V16.3323H39.8667V13.999H21.2C20.5812 13.999 19.9877 13.7532 19.5501 13.3156C19.1125 12.878 18.8667 12.2845 18.8667 11.6657Z" fill="#FFCC66"/>
<path d="M25.8667 1.16602H30.5333V10.4993H25.8667V1.16602Z" fill="#FFCC66"/>
<path d="M30.5333 1.16602V9.33268C29.6051 9.33268 28.7148 8.96393 28.0585 8.30756C27.4021 7.65118 27.0333 6.76094 27.0333 5.83268V1.16602H30.5333Z" fill="#FFDE76"/>
<path d="M22.3667 13.9987V16.332H20.0333V13.9987C20.0333 13.6893 20.1562 13.3925 20.375 13.1737C20.5938 12.9549 20.8906 12.832 21.2 12.832C21.5094 12.832 21.8062 12.9549 22.025 13.1737C22.2437 13.3925 22.3667 13.6893 22.3667 13.9987Z" fill="#FFBA55"/>
<path d="M35.2 13.9987V16.332H32.8667V13.9987C32.8667 13.6893 32.9896 13.3925 33.2084 13.1737C33.4272 12.9549 33.7239 12.832 34.0333 12.832C34.3428 12.832 34.6395 12.9549 34.8583 13.1737C35.0771 13.3925 35.2 13.6893 35.2 13.9987Z" fill="#FFBA55"/>
<path d="M45.7 41.042V54.832H1.36667V52.592C1.36649 50.1786 2.1148 47.8245 3.50849 45.8541C4.90217 43.8837 6.87263 42.394 9.14833 41.5904L21.2 37.332L28.2 45.4987L35.2 37.332L45.7 41.042Z" fill="#425B72"/>
<path d="M7.10667 52.4995C6.51353 52.4964 5.94555 52.2594 5.52613 51.84C5.10672 51.4206 4.86973 50.8526 4.86667 50.2595C4.86825 48.696 5.18405 47.1489 5.79533 45.7099C6.4066 44.2709 7.30087 42.9694 8.425 41.8828C6.34175 42.792 4.56946 44.29 3.32588 46.1926C2.08231 48.0953 1.42163 50.3198 1.425 52.5928V54.8328H45.7V52.4995H7.10667Z" fill="#374F68"/>
<path d="M55.0333 22.166V54.8327H45.7V22.166C47.1626 22.8432 48.755 23.194 50.3667 23.194C51.9784 23.194 53.5708 22.8432 55.0333 22.166Z" fill="#DB5669"/>
<path d="M55.0333 22.166C55.0333 53.8877 54.9167 52.4993 55.0333 52.4993C53.1768 52.4993 51.3963 51.7619 50.0836 50.4491C48.7708 49.1363 48.0333 47.3559 48.0333 45.4993V22.936C50.3857 23.4928 52.8582 23.2208 55.0333 22.166Z" fill="#F26674"/>
<path d="M55.0333 22.1667C53.5727 22.8508 51.9796 23.2055 50.3667 23.2055C48.7538 23.2055 47.1606 22.8508 45.7 22.1667L48.0333 17.5H52.7L55.0333 22.1667Z" fill="#F6CCAF"/>
<path d="M54.87 21.8517C53.0089 22.191 51.0926 22.0627 49.2933 21.4784C49.1329 21.4271 48.9855 21.3418 48.8612 21.2281C48.7369 21.1145 48.6387 20.9753 48.5733 20.8201C48.5079 20.6649 48.4768 20.4974 48.4823 20.3291C48.4878 20.1608 48.5296 19.9957 48.605 19.8451L49.7717 17.5117H52.7L54.87 21.8517Z" fill="#FFDEC7"/>
<path d="M52.7 17.4987H48.0333L50.3667 12.832L52.7 17.4987Z" fill="#374F68"/>
<path d="M44.5333 48.9988V54.8321H11.8667V48.9988C11.8687 48.2767 12.094 47.5729 12.5118 46.9839C12.9295 46.3949 13.5192 45.9495 14.2 45.7088C15.04 45.3821 13.57 45.4988 41.0333 45.4988C41.9616 45.4988 42.8518 45.8675 43.5082 46.5239C44.1646 47.1803 44.5333 48.0705 44.5333 48.9988Z" fill="#FFCC66"/>
<path d="M44.5333 49V52.5H21.2C17.0933 52.5 14.5617 48.335 15.565 45.5H41.0333C41.9616 45.5 42.8518 45.8688 43.5082 46.5251C44.1646 47.1815 44.5333 48.0717 44.5333 49Z" fill="#FFDE76"/>
<path d="M18.8667 38.1602V45.4985C15.1917 45.4985 14.9233 45.4285 14.2 45.7085V39.8052L18.8667 38.1602Z" fill="#FFCC66"/>
<path d="M18.8667 38.1602V44.3318C18.4109 44.3427 17.9576 44.2623 17.5334 44.0954C17.1092 43.9285 16.7227 43.6785 16.3966 43.36C16.0705 43.0414 15.8113 42.6609 15.6345 42.2408C15.4576 41.8206 15.3665 41.3693 15.3667 40.9135V39.3968L18.8667 38.1602Z" fill="#FFDE76"/>
<path d="M42.2 39.8052V45.7085C41.465 45.4285 41.1733 45.4985 37.5333 45.4985V38.1602L42.2 39.8052Z" fill="#FFCC66"/>
<path d="M42.2 39.807V44.3336C41.2718 44.3336 40.3815 43.9649 39.7251 43.3085C39.0688 42.6521 38.7 41.7619 38.7 40.8336V38.5703L42.2 39.807Z" fill="#FFDE76"/>
</svg>
